<?xml version="1.0" encoding="utf-8"?>
<!-- Generator: Adobe Illustrator 26.3.1, SVG Export Plug-In . SVG Version: 6.00 Build 0)  -->
<svg version="1.1" id="Layer_1" xmlns="http://www.w3.org/2000/svg" xmlns:xlink="http://www.w3.org/1999/xlink" x="0px" y="0px"
	 viewBox="0 0 512 512" style="enable-background:new 0 0 512 512;" xml:space="preserve">
<style type="text/css">
	.st0{fill:#EFF3F5;}
	.st1{fill:#FFC796;}
	.st2{fill:#C4ECED;}
	.st3{fill:#CCA7BF;}
	.st4{fill:#DF9F7A;}
	.st5{fill:#00AAC0;}
	.st6{fill:#F4FBFB;}
	.st7{fill:#B17BA0;}
	.st8{fill:#C2CED7;}
	.st9{fill:#71D3D4;}
	.st10{fill:#007E8F;}
	.st11{fill:#8F577D;}
	.st12{fill:#C7FBFF;}
	.st13{fill:#00D2EF;}
	.st14{fill:#E5D3E0;}
	.st15{fill:#A46690;}
	.st16{fill:#9FE1E2;}
	.st17{fill:#E7ECEF;}
	.st18{fill:#00616D;}
	.st19{fill:#BF92B0;}
	.st20{fill:#89F6FF;}
	.st21{fill:#D0F0F1;}
	.st22{fill:#ABE5E5;}
	.st23{fill:#D8BECF;}
	.st24{display:none;}
	.st25{display:inline;fill:#E7ECEF;}
	.st26{display:inline;fill:#C2CED7;}
	.st27{fill:#3A4B56;}
	.st28{fill:#B77E5A;}
	.st29{fill:#F7E365;}
	.st30{fill:#F3D332;}
	.st31{fill:#E69642;}
</style>
<g>
	<g>
		<g>
			<g>
				<path class="st0" d="M136,65l10,188.4H76V65c0-8.3,3.4-15.8,8.8-21.2S97.7,35,106,35C122.6,35,136,48.4,136,65z"/>
				<ellipse class="st1" cx="106" cy="17.5" rx="17.5" ry="17.5"/>
			</g>
			<g>
				<path class="st2" d="M196,65v188.4h-60V65c0-8.3,3.4-15.8,8.8-21.2S157.7,35,166,35C182.6,35,196,48.4,196,65z"/>
				<ellipse class="st1" cx="166" cy="17.5" rx="17.5" ry="17.5"/>
			</g>
			<g>
				<path class="st3" d="M256,65l10,188.4h-80L196,65c0-8.3,3.4-15.8,8.8-21.2S217.7,35,226,35C242.6,35,256,48.4,256,65z"/>
				<ellipse class="st4" cx="226" cy="17.5" rx="17.5" ry="17.5"/>
			</g>
			<g>
				<path class="st5" d="M316,65v188.4h-60V65c0-8.3,3.4-15.8,8.8-21.2S277.7,35,286,35C302.6,35,316,48.4,316,65z"/>
				<ellipse class="st1" cx="286" cy="17.5" rx="17.5" ry="17.5"/>
			</g>
			<g>
				<path class="st6" d="M376,65l10,188.4h-80L316,65c0-8.3,3.4-15.8,8.8-21.2S337.7,35,346,35C362.6,35,376,48.4,376,65z"/>
				<ellipse class="st1" cx="346" cy="17.5" rx="17.5" ry="17.5"/>
			</g>
			<g>
				<path class="st7" d="M436,65v188.4h-60V65c0-8.3,3.4-15.8,8.8-21.2c4-4,9.1-6.8,14.8-8.1c2.1-0.5,4.2-0.7,6.5-0.7
					C422.6,35,436,48.4,436,65L436,65z"/>
				<ellipse class="st4" cx="406" cy="17.5" rx="17.5" ry="17.5"/>
			</g>
		</g>
		<g>
			<path class="st8" d="M76,79h60v174.4H76V79z"/>
			<path class="st7" d="M196,79h60v174.4h-60V79z"/>
			<path class="st2" d="M316,79h60v174.4h-60V79z"/>
		</g>
		<g>
			<path class="st9" d="M136,79h60v174.4h-60V79z"/>
			<path class="st10" d="M256,79h60v174.4h-60V79z"/>
			<path class="st11" d="M406,35c-2.2,0-4.4,0.2-6.5,0.7c3.9,1,7.3,3,10,5.7c4,4,6.4,9.5,6.4,15.6c0,12.2-9.9,22-22,22h-18v174.4h60
				V65C436,48.4,422.6,35,406,35z"/>
		</g>
		<g>
			<g>
				<path class="st12" d="M466,170.3v90.9h-70l10-90.9c0-8.3,3.4-15.8,8.8-21.2c2-2.1,4.4-3.8,7-5.2c4.2-2.3,9.1-3.6,14.2-3.6
					C452.6,140.3,466,153.7,466,170.3z"/>
				<ellipse class="st4" cx="436" cy="122.8" rx="17.5" ry="17.5"/>
			</g>
			<g>
				<path class="st13" d="M226,170.3l10,90.9h-80l10-90.9c0-8.3,3.4-15.8,8.8-21.2s12.9-8.8,21.2-8.8
					C212.6,140.3,226,153.7,226,170.3z"/>
				<ellipse class="st1" cx="196" cy="122.8" rx="17.5" ry="17.5"/>
			</g>
			<g>
				<path class="st14" d="M106,170.3l10,90.9H46v-90.9c0-8.3,3.4-15.8,8.8-21.2s12.9-8.8,21.2-8.8C92.6,140.3,106,153.7,106,170.3z"
					/>
				<ellipse class="st1" cx="76" cy="122.8" rx="17.5" ry="17.5"/>
			</g>
			<g>
				<path class="st15" d="M346,170.3l10,90.9h-80l10-90.9c0-8.3,3.4-15.8,8.8-21.2s12.9-8.8,21.2-8.8
					C332.6,140.3,346,153.7,346,170.3z"/>
				<ellipse class="st4" cx="316" cy="122.8" rx="17.5" ry="17.5"/>
			</g>
			<g>
				<path class="st10" d="M166,170.3v90.9h-60v-90.9c0-8.3,3.4-15.8,8.8-21.2s12.9-8.8,21.2-8.8C152.6,140.3,166,153.7,166,170.3z"
					/>
				<ellipse class="st4" cx="136" cy="122.8" rx="17.5" ry="17.5"/>
			</g>
			<g>
				<path class="st16" d="M286,170.3v90.9h-60v-90.9c0-8.3,3.4-15.8,8.8-21.2s12.9-8.8,21.2-8.8C272.6,140.3,286,153.7,286,170.3z"
					/>
				<ellipse class="st1" cx="256" cy="122.8" rx="17.5" ry="17.5"/>
			</g>
			<g>
				<path class="st17" d="M406,170.3v90.9h-60v-90.9c0-8.3,3.4-15.8,8.8-21.2s12.9-8.8,21.2-8.8C392.6,140.3,406,153.7,406,170.3z"
					/>
				<ellipse class="st1" cx="376" cy="122.8" rx="17.5" ry="17.5"/>
			</g>
		</g>
		<g>
			<path class="st18" d="M106,229.4h60v31.8h-60V229.4z"/>
			<path class="st9" d="M226,229.4h60v31.8h-60V229.4z"/>
			<path class="st8" d="M346,229.4h60v31.8h-60V229.4z"/>
		</g>
		<g>
			<path class="st19" d="M46,229.4h60v31.8H46V229.4z"/>
			<path class="st5" d="M166,229.4h60v31.8h-60V229.4z"/>
			<path class="st11" d="M286,229.4h60v31.8h-60V229.4z"/>
			<path class="st20" d="M466,170.3v90.9h-60v-31.8h12.1c11.1,0,20.1-9,20.1-20.1v-38c0-11.9-6.7-22.2-16.5-27.4
				c4.2-2.3,9.1-3.6,14.2-3.6C452.6,140.3,466,153.7,466,170.3z"/>
		</g>
	</g>
	<g>
		<g>
			<g>
				<path class="st21" d="M482.3,261.2c0,74.6-36,140.8-91.7,182.1l-79.7,27.7l-15.5-6.5L53,362.8c-9.4-18.7-16.3-38.8-20.2-60
					l15.3-41.6L482.3,261.2z"/>
				<path class="st22" d="M482.3,261.2c0,74.6-36,140.8-91.7,182.1l-79.7,27.7l-15.5-6.5c86.8-26.8,149.9-107.6,149.9-203.2
					L482.3,261.2z"/>
				<path class="st23" d="M85.8,261.2c-8,18.9-22.5,35.4-53,41.6c-2.5-13.5-3.8-27.4-3.8-41.6L85.8,261.2z"/>
				<path class="st23" d="M296.2,321.9c-7.1,16.3-58.7,12.6-71.3,0c-9.8-9.8-14.3-43-8.2-60.8h41.4
					C280.7,277.5,302.7,307,296.2,321.9z"/>
				<path class="st23" d="M390.6,443.2c-37.7,28-84.4,44.6-135,44.6c-55.2,0-105.7-19.7-145-52.5C86.7,415.5,67,390.8,53,362.8
					c89.3,0,34.1-60,75.5-60c55.3,0,48.2,89.8,78.4,105.4c29.9,15.4,52.2-16.9,94.6-16.9c32.2,0,32.6,28.1,54.6,43
					C364,439.6,374.7,443.2,390.6,443.2L390.6,443.2z"/>
				<path class="st3" d="M356.1,434.3c7.9,5.3,18.6,8.9,34.5,8.9c-37.7,28-84.4,44.6-135,44.6c-55.2,0-105.7-19.7-145-52.5
					c34.5,24.2,76.6,38.5,122,38.5C278.6,473.8,321.3,459.2,356.1,434.3z"/>
				<g class="st24">
					<path class="st25" d="M511.9,370.4c0,10.6-8.6,19.2-19.2,19.2H390.8c-14.4,0-26.1-11.7-26.1-26.2c0-14.4,11.7-26.1,26.1-26.1
						c6,0,11.6,2,16,5.5c3.3-18.6,19.6-32.7,39.2-32.7c8.9,0,17.1,2.9,23.8,7.9c9.7,7.3,16,18.9,16,31.9c0,0.9,0,1.9-0.1,2.8
						c2.2-0.9,4.6-1.4,7.1-1.4C503.3,351.2,511.9,359.8,511.9,370.4L511.9,370.4z"/>
					<path class="st26" d="M511.9,370.4c0,10.6-8.6,19.2-19.2,19.2H390.8c-14.4,0-26.1-11.7-26.1-26.2c0,7.2,8.9,13.6,16,13.6h56.7
						c21.2-0.2,38.2-17.4,38.2-38.6c0-7.6-2.2-14.6-5.9-20.6c9.7,7.3,16,18.9,16,31.9c0,0.9,0,1.9-0.1,2.8c2.2-0.9,4.6-1.4,7.1-1.4
						C503.3,351.2,511.9,359.8,511.9,370.4L511.9,370.4z"/>
				</g>
			</g>
			<path class="st27" d="M504.5,253.4H7.5c-4.1,0-7.5,3.4-7.5,7.5s3.4,7.5,7.5,7.5h497c4.1,0,7.5-3.4,7.5-7.5
				S508.6,253.4,504.5,253.4L504.5,253.4z"/>
		</g>
		<path class="st28" d="M224.9,373.8c0-0.2,0.1-0.5,0.4-0.7L224.9,373.8z"/>
	</g>
</g>
<g>
	<circle class="st29" cx="268.3" cy="269.6" r="75.4"/>
</g>
<g>
	<path class="st30" d="M304.6,201c8.5,12.2,13.5,27,13.5,43.1c0,41.6-33.8,75.4-75.4,75.4c-16,0-30.9-5-43.1-13.5
		c13.6,19.5,36.2,32.3,61.9,32.3c41.6,0,75.4-33.8,75.4-75.4C336.9,237.3,324.1,214.6,304.6,201L304.6,201z"/>
</g>
<g>
	<path class="st31" d="M265.1,303.1l-14.6,6.3c-5.6,2.4-11.8-2.1-11.2-8.2l1.5-15.9c0.2-2.2-0.5-4.4-2-6.1l-10.5-12
		c-4.1-4.6-1.7-11.9,4.3-13.2l15.5-3.5c2.2-0.5,4-1.8,5.2-3.8l8.1-13.7c3.1-5.3,10.8-5.3,13.9,0l8.1,13.7c1.1,1.9,3,3.3,5.2,3.8
		l15.5,3.5c6,1.3,8.3,8.6,4.3,13.2l-10.5,12c-1.5,1.7-2.2,3.9-2,6.1l1.5,15.9c0.6,6.1-5.6,10.6-11.2,8.2l-14.6-6.3
		C269.4,302.2,267.1,302.2,265.1,303.1L265.1,303.1z"/>
</g>
</svg>
