<?xml version="1.0" encoding="utf-8"?>
<!-- Generator: Adobe Illustrator 26.3.1, SVG Export Plug-In . SVG Version: 6.00 Build 0)  -->
<svg version="1.1" id="Layer_1" xmlns="http://www.w3.org/2000/svg" xmlns:xlink="http://www.w3.org/1999/xlink" x="0px" y="0px"
	 viewBox="0 0 512 512" style="enable-background:new 0 0 512 512;" xml:space="preserve">
<style type="text/css">
	.st0{opacity:0.66;}
	.st1{clip-path:url(#XMLID_00000052817532837747170110000001349999011364490157_);}
	.st2{fill:#C2CED7;}
	.st3{fill:#D8BECF;}
	.st4{fill:#BF92B0;}
	.st5{fill:#B17BA0;}
	.st6{fill:#F3EAEF;}
	.st7{fill:#007E8F;}
	.st8{fill:#00505B;}
	.st9{fill:#FCFDFD;}
	.st10{fill:#DCF4F4;}
	.st11{fill:#D0F0F1;}
	.st12{fill:#B9E8E9;}
	.st13{display:none;fill:#E7ECEF;}
</style>
<g>
	<g class="st0">
		<defs>
			<path id="XMLID_00000119836689027948142910000009270072943708330926_" class="st0" d="M256,22C120.7,22,11,131.7,11,267
				c0,104.1,65,193.1,156.6,228.5h176.9C436,460.1,501,371.1,501,267C501,131.7,391.3,22,256,22L256,22z"/>
		</defs>
		<use xlink:href="#XMLID_00000119836689027948142910000009270072943708330926_"  style="overflow:visible;fill:#E7ECEF;"/>
		<clipPath id="XMLID_00000081613234907361616210000011019617163524790699_">
			<use xlink:href="#XMLID_00000119836689027948142910000009270072943708330926_"  style="overflow:visible;"/>
		</clipPath>
		<g style="clip-path:url(#XMLID_00000081613234907361616210000011019617163524790699_);">
			<path class="st2" d="M59.9,157.6l-3.3,9.8c-1.8,5.2-4.5,10.1-8.1,14.3l-2.2,2.6c-3.9,4.6-5.6,10.8-4.4,16.8l3.3,17.1
				c0.3,1.7,1.2,3.2,2.6,4.3l7.6,6.4c1.9,1.6,3,4.1,2.7,6.6l-1.8,16.4c-0.6,5.6,1.1,11.2,4.8,15.4l3.2,3.7c3.5,4,9.2,5.2,14.1,3
				l20.5-9.5c3.8-1.7,8.2-0.1,10,3.7c0.2,0.4,0.4,0.9,0.5,1.4l1.8,7.4c1,4,5.1,6.5,9.1,5.5c0.8-0.2,1.5-0.5,2.1-0.9l22-13.4
				c5.7-3.4,7.5-10.8,4-16.5c-0.5-0.8-1.1-1.6-1.7-2.2l-13.5-13.7c-3.3-3.3-8.1-4.4-12.5-2.9l-3.2,1.1c-3,1-6.3,0.1-8.3-2.3l-8-9.7
				c-1.6-1.9-2.1-4.4-1.5-6.8l2.4-8.7c1.4-5.1,5.9-8.7,11.2-8.9l10.8-0.4c0.9,0,1.7,0.1,2.6,0.4l27.1,8.7c2.3,0.8,4.2,2.6,4.9,4.9
				l2.5,8c3.9,12.5,10.8,23.9,20.2,33.1l6,5.9c1.4,1.4,3.4,2.2,5.4,2.2l3.9-0.1c6.6-0.1,12.1,5.2,12.2,11.8c0,0.7,0,1.4-0.1,2.1
				l-1.4,8.8c-0.7,4.4-0.8,8.9-0.2,13.4l3.5,28.4c0.2,1.3,0.7,2.5,1.4,3.6l10.3,13.8c2.5,3.3,7.2,4,10.5,1.5
				c0.9-0.7,1.6-1.5,2.1-2.5l11.6-21.9c1-2,1.2-4.3,0.3-6.4l-5.4-13.4c-1.5-3.7,0.2-8,3.8-9.6l16.1-7.5c1.5-0.7,2.8-1.9,3.5-3.4
				l6-11.8c2.6-5.1,8.3-7.6,13.8-6.1l13.9,3.7c3.3,0.9,5.6,3.9,5.6,7.3V288c0,3.6,2.6,6.8,6.2,7.4l11.9,2.1c3.8,0.7,6.5,4.2,6.2,8.1
				l-1.1,12.1c-0.3,4,0.8,8,3.3,11.2l10.3,13.4c0.4,0.6,0.9,1.1,1.5,1.5l11.5,8.4c3.4,2.5,8.1,1.7,10.5-1.6c0.9-1.3,1.5-2.9,1.5-4.5
				v-6.3c0-3.2-1-6.3-2.8-9l-7.2-10.6c-2.1-3.1-1.6-7.4,1.3-9.9l2.3-2c2.2-2,5.4-2.4,8.1-1.2c3.4,1.6,7.4,0.5,9.4-2.6l7.3-10.8
				c1.5-2.3,1.7-5.3,0.4-7.7l-3.6-6.7c-2.1-3.9-5.6-6.8-9.9-8l-4.6-1.3c-3.3-0.9-5.6-3.9-5.5-7.4l0.3-16.4c0.1-4.2,3.5-7.5,7.6-7.4
				c0.1,0,0.2,0,0.3,0l21.1,1.1c5.3,0.3,10.4-2,13.6-6.3l10.5-13.7c2.7-3.6,4.6-7.7,5.3-12.1l2.3-13.2c0.7-3.8,0.2-7.7-1.3-11.3
				l-6.2-14.6c-2.4-5.6-8.5-8.5-14.3-6.9l-4.5,1.3c-4,1.1-8.2-1.2-9.3-5.2c0-0.1-0.1-0.3-0.1-0.4l-3.1-13.4c-0.6-2.5,0.2-5.2,2-7
				l7.3-7.3c2.4-2.4,6.1-2.9,9.1-1.2l13.8,7.9c0.8,0.5,1.8,0.8,2.7,0.9l10.1,1.4c4.1,0.6,7.9-2.3,8.5-6.5c0.1-0.6,0.1-1.3,0-1.9
				l-2.9-23.2c-0.3-2.4-1.7-4.4-3.7-5.6l-14.3-8.2c-1.6-0.9-2.8-2.4-3.4-4.2l-4-12.1c-2.3-6.8-7.9-11.8-14.9-13.3l-27-5.6
				c-4.1-0.8-8.1,1.8-8.9,5.8c-0.1,0.4-0.1,0.8-0.2,1.2L357.1,83c-0.1,1.8-0.8,3.5-2,4.8L336.3,108c-2,2.2-5.2,3-8,2l-14.2-5
				c-9.9-3.5-20.7-2.5-29.8,2.7l-13.8,7.9c-2.4,1.4-5.5,1.3-7.8-0.2l-13.3-8.7c-3.7-2.4-8.1-3.2-12.4-2.2l-6,1.4
				c-3.8,0.9-7.7-1.3-8.9-5.1l-2.8-9.1c-0.8-2.7-3.1-4.6-5.8-5.1l-33.5-6.2c-5-0.9-10.1,1.4-12.6,5.9l-5.7,10
				c-0.7,1.3-1.1,2.8-1,4.3l0.4,5.3c0.3,4.1-2.8,7.8-6.9,8.1c-0.6,0-1.2,0-1.7-0.1l-6.5-1c-4.1-0.6-8,2.2-8.6,6.3c0,0,0,0.1,0,0.1
				l-2.1,15.1c-0.3,1.9,0.2,3.9,1.4,5.5l4,5.5c1.7,2.3,1.9,5.4,0.6,7.9l-6.8,13.1c-1.9,3.7-6.5,5.1-10.1,3.2
				c-0.6-0.3-1.2-0.7-1.7-1.2L111.2,158c-1.9-1.8-2.7-4.4-2.2-7l1.7-8.6c0.4-2,0-4-1.1-5.7L95.4,116c-1.8-2.7-5.2-3.9-8.3-3l-11,3.1
				c-1.7,0.5-3.6,0.4-5.2-0.4L55,108.3c-6.5-3-14-2.3-19.9,1.8l-1.7,1.2c-5.1,3.5-6.6,10.3-3.6,15.7l5.9,10.6c0.8,1.4,2,2.5,3.5,3.2
				l16.6,7.5C59.4,149.9,61.2,153.9,59.9,157.6L59.9,157.6z"/>
			<path class="st2" d="M399.7,351.1l-0.5,0.1c-4.5,1-7.7,5-7.7,9.6v4.6c0,2.6,1.1,5.1,3.1,6.8l8,6.9c2.8,2.4,6.4,3.4,10,2.7
				l3.7-0.7c5-0.9,8.9-4.9,9.7-9.9l2.4-15c0.3-2.1,1.4-4,3-5.4l6.3-5.4c3.2-2.8,4.1-7.5,2-11.2l-2-3.6c-0.8-1.5-1.2-3.2-1.1-4.9
				l0.6-11.8c0.3-4.9-3.5-9.2-8.5-9.4c-0.9,0-1.7,0-2.5,0.2l-1.9,0.5c-3,0.7-5.4,2.9-6.4,5.8l-11.9,34.3
				C405.2,348.2,402.8,350.4,399.7,351.1L399.7,351.1z"/>
			<path class="st2" d="M348.4,407.5l1.3-4.9c0.6-2.3,0.2-4.7-1-6.8l-5.7-9.7c-2.2-3.7-6.1-5.9-10.4-5.9h-5.4
				c-1.9,0-3.7-0.6-5.2-1.6l-21-14.8c-1-0.7-2.2-1.2-3.4-1.5l-5.1-1c-4.9-1-9.6,2.1-10.6,7c-0.4,1.8-0.2,3.8,0.6,5.5l4.9,10.9
				c3,6.7,7.8,12.4,13.9,16.6l20.1,13.8c1.5,1,3.3,1.6,5.1,1.6h10.2C342.2,416.5,347,412.8,348.4,407.5L348.4,407.5z"/>
			<path class="st2" d="M465.3,418.5l7.4-1.1c4.4-0.7,7.4-4.7,6.7-9.1c-0.2-1.5-0.9-2.9-1.9-4.1l-1.2-1.3c-2.9-3.2-3-8-0.3-11.4
				l6.4-8.2c2.8-3.5,2.5-8.6-0.7-11.8l-3.1-3.2c-2.2-2.2-5.4-3.2-8.4-2.5l-8.7,2c-2.8,0.7-5.2,2.6-6.3,5.3l-7.6,18.6
				c-2.4,5.9-1.1,12.6,3.2,17.2l6.7,7C459.5,417.9,462.4,418.9,465.3,418.5L465.3,418.5z"/>
			<path class="st2" d="M370.7,425l5.2-0.7c3.4-0.4,6.8,0.6,9.4,2.9l1.7,1.4c1.6,1.4,3.7,2.2,5.9,2.2h3.9c2.8,0,5.5-1.3,7.2-3.6
				l4.2-5.6c2.3-3,6.1-4.3,9.7-3.2l9.3,2.8c2.1,0.6,4,2.1,5.1,4l5.4,9c3.3,5.4,1.8,12.5-3.5,16.1l-7.7,5.3
				c-4.7,3.3-10.7,4.3-16.3,2.9l-32.2-8.1l-12.8-3.8c-4.7-1.4-7.4-6.4-6-11.2c0.2-0.8,0.6-1.5,1-2.2l1.7-2.8
				C364,427.4,367.2,425.4,370.7,425L370.7,425z"/>
		</g>
	</g>
	<path class="st3" d="M288.4,346.9c-6.7-6.5-16.8-18.8-18-35c-4.3,2.2-9.2,3.5-14.4,3.5c-0.7,0-1.5,0-2.2-0.1v104.7
		c0.7,0,1.5-0.1,2.2-0.1c10.8,0,21.1,2.2,30.4,6.3l7-65.3C294,355.8,292.2,350.6,288.4,346.9z"/>
	<path class="st4" d="M286.4,426.3l7-65.3c0,0,0,0,0,0c0,0,0,0,0,0c-11,18.3-24.9,14.9-32.3,11.3c-2.3-1.1-4.8-1.5-7.3-1.1v48.9
		c0.7,0,1.5-0.1,2.2-0.1C266.8,420,277.1,422.2,286.4,426.3L286.4,426.3z"/>
	<path class="st4" d="M241.6,311.9c-1.1,16.2-11.2,28.5-17.9,35c-3.8,3.6-5.6,8.9-5.1,14.1l7,65.3c9.3-4.1,19.6-6.3,30.4-6.3
		l0-104.6C250.8,315.4,245.9,314.2,241.6,311.9L241.6,311.9z"/>
	<path class="st5" d="M256,420l0-49c-1.7,0-3.5,0.3-5.1,1.1c-20.1,9.4-32.3-11.1-32.3-11.1l7,65.3C234.9,422.2,245.2,420,256,420
		L256,420z"/>
	<path class="st3" d="M227.8,271.6c-2.2,4.3-3.4,9.2-3.4,14.3c0,17.5,14.2,31.7,31.7,31.7s31.7-14.2,31.7-31.7
		c0-5.2-1.2-10-3.4-14.3C267,281.9,245,281.9,227.8,271.6z"/>
	<g>
		<path class="st3" d="M317.5,448.7c-14-18.8-36.3-30.9-61.5-30.9s-47.5,12.2-61.5,30.9H317.5z"/>
	</g>
	<path class="st4" d="M272.1,419.5c-5.2-1.1-10.6-1.7-16.1-1.7c-25.2,0-47.5,12.2-61.5,30.9h74.6
		C259.8,441.4,260.6,424.7,272.1,419.5L272.1,419.5z"/>
	<path class="st3" d="M132.7,36.9C132.7,36.9,132.7,36.9,132.7,36.9c0.2,48.1,9.8,157.9,85.5,229.7c21,19.9,54.6,19.9,75.5,0
		c75.7-71.8,85.3-181.6,85.6-229.7H132.7L132.7,36.9z"/>
	<path class="st4" d="M205.5,114.7c-3.8-28.3,18.1-53.5,46.7-53.5l126.3,0c0.6-9.2,0.8-17.4,0.9-24.3H132.7c0,0,0,0-0.1,0
		c0.3,48.1,9.9,157.9,85.6,229.7c15.4,14.6,37.6,18.5,56.6,11.6C229.9,228.2,212.1,164.2,205.5,114.7L205.5,114.7z"/>
	<g>
		<path class="st6" d="M379.3,39.1H132.7c-8.2,0-14.8-6.6-14.8-14.8s6.6-14.8,14.8-14.8h246.6c8.2,0,14.8,6.6,14.8,14.8
			C394.1,32.5,387.5,39.1,379.3,39.1z"/>
	</g>
	<path class="st3" d="M204.4,24.3c0-8.2,6.6-14.8,14.8-14.8h-86.5c-8.2,0-14.8,6.6-14.8,14.8s6.6,14.8,14.8,14.8h86.5
		C211,39.1,204.4,32.5,204.4,24.3z"/>
	<g>
		<path class="st3" d="M183.4,287.5c-5.1-3.3-6.6-10-3.4-15.1c6.6-10.4-1.2-25-14.4-25c-0.2,0-0.3,0-0.5,0l-0.3,0
			c-10.4,0.3-20.7-3.8-28.2-11.2C55,155.4,30.9,80.1,23.8,42.4C19.7,20.8,35.9,0.6,57.9,0c17.7-0.5,33.2,12.3,36.2,29.7l0.2,0.9
			c2,11.1,12,19.2,23.4,18.9l12.8-0.4c6-0.1,11.1,4.6,11.3,10.7c0.2,6.1-4.6,11.1-10.7,11.3l-12.8,0.4c-22.1,0.6-41.8-15.3-45.6-37
			l-0.2-1c-1.2-6.8-7.1-11.7-14-11.5c-8.7,0.2-14.7,8.2-13.2,16.4C51.9,73.5,74.6,144,152.1,220.6c3.2,3.2,7.7,5,12.2,4.8l0.3,0
			c31.4-0.9,49.9,33.7,34,58.7C195.3,289.3,188.5,290.8,183.4,287.5z"/>
	</g>
	<path class="st7" d="M333.8,446.5H178.2c-7.2,0-13.2,5.9-13.2,13.2v34.9c7,2.8,14.2,5.3,21.6,7.5h138.8c7.3-2.2,14.5-4.7,21.6-7.5
		v-34.9C347,452.4,341.1,446.5,333.8,446.5z"/>
	<path class="st8" d="M165,459.7v34.9c7,2.8,14.2,5.3,21.6,7.5h67.3v-6.5c0-5.2,3.3-8.9,6.1-11.1c1.7-1.3,2.2-3.8,1.2-5.7
		c-2.4-4.6-0.4-8.8,1.3-11.1c1-1.3,1.1-3,0.4-4.5c-2.9-6.5-0.5-10.9,2.3-13.5c0.9-0.9,1.4-2,1.4-3.2h-88.4
		C170.9,446.5,165,452.4,165,459.7L165,459.7z"/>
	<path class="st9" d="M310.6,473.9H201.4c-4.4,0-7.9,3.5-7.9,7.9v22.1c19.9,5.2,40.9,8.1,62.5,8.1s42.5-2.8,62.5-8.1v-22.1
		C318.5,477.5,314.9,473.9,310.6,473.9z"/>
	<path class="st10" d="M259.9,484.5c1.7-1.3,2.2-3.8,1.2-5.7c-0.9-1.7-1.2-3.4-1.1-4.9h-58.7c-4.4,0-7.9,3.5-7.9,7.9v22.1
		c19.3,5.1,39.5,7.9,60.3,8v-16.4C253.8,490.3,257.2,486.6,259.9,484.5L259.9,484.5z"/>
	<path class="st11" d="M310.6,465.7H201.4c-8.9,0-16.1,7.2-16.1,16.1v19.8c5.4,1.6,10.9,3.1,16.4,4.3v-23.8h108.5V506
		c5.6-1.3,11-2.7,16.4-4.3v-19.8C326.7,472.9,319.5,465.7,310.6,465.7L310.6,465.7z"/>
	<path class="st12" d="M261.2,478.8c-2.4-4.6-0.4-8.8,1.3-11.1c0.4-0.6,0.7-1.3,0.8-2h-61.8c-8.9,0-16.1,7.2-16.1,16.1v19.8
		c5.4,1.6,10.9,3.1,16.4,4.3v-23.8h59.7C261.8,481.1,261.7,479.9,261.2,478.8z"/>
	<g>
		
			<ellipse transform="matrix(7.088910e-02 -0.9975 0.9975 7.088910e-02 -51.9962 537.9374)" class="st6" cx="262.8" cy="296.9" rx="10.9" ry="10.9"/>
		<circle class="st6" cx="276.6" cy="121.6" r="10.9"/>
		<circle class="st6" cx="313" cy="98.6" r="19.6"/>
	</g>
	<g>
		<path class="st4" d="M54.6,18c0,1.8-0.3,3.4-0.9,5c1.5-0.6,3.1-1,4.8-1c6.9-0.2,12.8,4.8,14,11.5l0.2,1
			c3.8,21.7,23.5,37.6,45.6,37l12.8-0.4c6.1-0.2,10.8-5.2,10.7-11.3c-0.2-6.1-5.2-10.8-11.3-10.7l-12.8,0.4
			c-11.4,0.3-21.4-7.8-23.4-18.9l-0.2-0.9C91.1,12.3,75.6-0.5,57.9,0c-5.8,0.2-11.2,1.7-16,4.3C49,4.8,54.6,10.7,54.6,18z"/>
	</g>
	<g>
		<path class="st3" d="M328.6,287.5c5.1-3.3,6.6-10,3.4-15.1c-6.6-10.4,1.2-25,14.4-25c0.2,0,0.3,0,0.5,0l0.3,0
			c10.4,0.3,20.7-3.8,28.2-11.2C457,155.4,481.1,80.1,488.2,42.4c4.1-21.6-12.1-41.8-34.1-42.4c-17.7-0.5-33.2,12.3-36.2,29.7
			l-0.2,0.9c-2,11.1-12,19.2-23.4,18.9l-12.8-0.4c-6-0.1-11.1,4.6-11.3,10.7c-0.2,6.1,4.6,11.1,10.7,11.3l12.8,0.4
			c22.1,0.6,41.8-15.3,45.6-37l0.2-1c1.2-6.8,7.1-11.7,14-11.5c8.7,0.2,14.7,8.2,13.2,16.4c-6.6,35.2-29.3,105.6-106.8,182.2
			c-3.2,3.2-7.7,5-12.2,4.8l-0.3,0c-31.4-0.9-49.9,33.7-34,58.7C316.7,289.3,323.5,290.8,328.6,287.5L328.6,287.5z"/>
	</g>
	<g>
		<path class="st4" d="M457.4,18c0,1.8,0.3,3.4,0.9,5c-1.5-0.6-3.1-1-4.8-1c-6.9-0.2-12.8,4.8-14,11.5l-0.2,1
			c-3.8,21.7-23.5,37.6-45.6,37l-12.8-0.4c-6.1-0.2-10.8-5.2-10.7-11.3c0.2-6.1,5.2-10.8,11.3-10.7l12.8,0.4
			c11.4,0.3,21.4-7.8,23.4-18.9l0.2-0.9c3-17.4,18.5-30.2,36.2-29.7c5.8,0.2,11.2,1.7,16,4.3C463,4.8,457.4,10.7,457.4,18L457.4,18z
			"/>
	</g>
	<path class="st13" d="M501,265.3c-22.7-18-68.4-44.6-106.5-6.5c-53,53-86.1,117.3-40.1,144.1c28,16.3,35.2,47,36.6,68.6
		c66.3-43.8,110-119,110-204.5C501,266.4,501,265.8,501,265.3z"/>
	<path class="st13" d="M117.5,258.8c-38.1-38.1-83.8-11.5-106.5,6.5c0,0.6,0,1.1,0,1.7c0,85.4,43.7,160.6,110,204.5
		c1.4-21.6,8.7-52.3,36.6-68.6C203.7,376.1,170.6,311.8,117.5,258.8z"/>
</g>
</svg>
