<?xml version="1.0" encoding="utf-8"?>
<!-- Generator: Adobe Illustrator 26.3.1, SVG Export Plug-In . SVG Version: 6.00 Build 0)  -->
<svg version="1.1" id="Capa_1" xmlns="http://www.w3.org/2000/svg" xmlns:xlink="http://www.w3.org/1999/xlink" x="0px" y="0px"
	 viewBox="0 0 512 512" style="enable-background:new 0 0 512 512;" xml:space="preserve">
<style type="text/css">
	.st0{fill:#EFF3F5;}
	.st1{fill:#E7ECEF;}
	.st2{fill:#D0F0F1;}
	.st3{fill:#ABE5E5;}
	.st4{fill:#E4F6FF;}
	.st5{fill:#00AAC0;}
	.st6{fill:#CCA7BF;}
	.st7{fill:#B17BA0;}
	.st8{fill:#FFFFFF;}
	.st9{fill:#F1B986;}
	.st10{fill:#BE694F;}
	.st11{fill:#F1D0A5;}
	.st12{fill:#404A4A;}
	.st13{fill:#BF92B0;}
	.st14{fill:#EAB14D;}
</style>
<g>
	<circle class="st0" cx="256" cy="256" r="256"/>
	<path class="st1" d="M327.8,501.8C305,508.4,280.9,512,256,512C114.6,512,0,397.4,0,256C0,114.6,114.6,0,256,0
		c24.9,0,49,3.6,71.8,10.2C221.4,41.3,143.6,139.5,143.6,256S221.4,470.7,327.8,501.8z"/>
	<path class="st2" d="M181.2,227.5c-12.1,72.5-76.5,103.4-51,161.1c25.5,57.7,25.8,74.9-4.5,87.8h0c-25.9-15.4-48.9-35.1-67.8-58.3
		c13.5-51.1-48-91.7-56.1-132.5c0,0,0,0,0-0.1C0.6,275.8,0,266,0,256c0-61.2,21.5-117.4,57.3-161.4
		C120.8,112.1,193.3,155,181.2,227.5L181.2,227.5z"/>
	<path class="st3" d="M125.7,476.4L125.7,476.4c30.4-12.9,30-30,4.5-87.8c-14.6-33,0.2-57.2,17.8-85.4c-2.9-15.3-4.4-31.1-4.4-47.2
		c0-35,7-68.3,19.7-98.7c-24-31.3-66.8-51.9-106.1-62.8C21.5,138.6,0,194.8,0,256c0,10,0.6,19.8,1.7,29.5c0,0,0,0,0,0.1
		c8.2,40.8,69.7,81.4,56.1,132.5C76.8,441.2,99.8,461,125.7,476.4z"/>
	<path class="st4" d="M155.7,491.6L155.7,491.6C186.5,504.7,220.4,512,256,512s69.5-7.3,100.3-20.4v0
		c-30.8-13.1-64.7-20.4-100.3-20.4C220.4,471.2,186.5,478.5,155.7,491.6L155.7,491.6z"/>
	<path class="st3" d="M327.8,501.8c-23.9-7-46.3-17.3-66.7-30.5c-1.7,0-3.4-0.1-5.1-0.1c-35.6,0-69.5,7.3-100.3,20.4l0,0
		C186.5,504.7,220.4,512,256,512C280.9,512,305,508.4,327.8,501.8L327.8,501.8z"/>
	<path class="st5" d="M512,256c0,67.4-26,128.6-68.6,174.4c-24.9-19.6-45.8-62.1-45.8-100.8c0-52.4,64.4-44.3,64.4-81.9
		s-88.6-10.7-88.6-80.6c0-45.2,43.5-69.3,74.3-80.7C487.7,131.6,512,191,512,256L512,256z"/>
	<path class="st2" d="M207.6,38.2c18.4,4.6,21.5,79.2-8.1,79.2s-59.7-12.1-59.7-30.2S175.4,30.2,207.6,38.2z"/>
	<path class="st3" d="M207.6,38.2c-32.2-8.1-67.8,30.9-67.8,49c0,15.1,21,26,45.2,29.2c10.5-16.1,22.8-31,36.5-44.3
		C220.8,55.5,215.7,40.2,207.6,38.2z"/>
	<g>
		<path class="st6" d="M499.1,93.9c0,29.2-16.3,54.7-40.4,67.6c-10.8,5.8-23.2,9.1-36.3,9.1c-13.1,0-25.5-3.3-36.3-9.1
			c-24.1-12.9-40.4-38.4-40.4-67.6c0-42.4,34.4-76.7,76.7-76.7S499.1,51.5,499.1,93.9L499.1,93.9z"/>
		<path class="st7" d="M402.5,161.5c8.5,4.6,18,7.6,28.1,8.7c-2.7,0.3-5.5,0.4-8.2,0.4c-13.1,0-25.5-3.3-36.3-9.1
			c-24.1-12.9-40.4-38.4-40.4-67.6c0-42.4,34.4-76.7,76.7-76.7c2.8,0,5.5,0.1,8.2,0.4c-38.5,4.1-68.5,36.7-68.5,76.3
			C362.1,123.1,378.5,148.5,402.5,161.5L402.5,161.5z"/>
		<path class="st8" d="M458.7,161.5c-10.8,5.8-23.2,9.1-36.3,9.1c-13.1,0-25.5-3.3-36.3-9.1c2.9-17.5,18.1-30.8,36.3-30.8
			S455.8,144,458.7,161.5z"/>
		<circle class="st9" cx="422.4" cy="93.9" r="36.8"/>
		<path class="st10" d="M422.4,57c-9.7,0-18.6,3.8-25.2,9.9c0,0,22.1,26.9,62,26.9C459.2,73.5,442.7,57,422.4,57L422.4,57z"/>
	</g>
	<g>
		<path class="st6" d="M432.5,359.3c0,29.2-16.3,54.7-40.4,67.6c-10.8,5.8-23.2,9.1-36.3,9.1s-25.5-3.3-36.3-9.1
			C295.3,414,279,388.6,279,359.3c0-42.4,34.4-76.7,76.7-76.7S432.5,317,432.5,359.3L432.5,359.3z"/>
		<path class="st7" d="M335.9,426.9c8.5,4.6,18,7.6,28.1,8.7c-2.7,0.3-5.5,0.4-8.2,0.4c-13.1,0-25.5-3.3-36.3-9.1
			C295.3,414,279,388.6,279,359.3c0-42.4,34.4-76.7,76.7-76.7c2.8,0,5.5,0.1,8.2,0.4c-38.5,4.1-68.5,36.7-68.5,76.3
			C295.4,388.6,311.8,414,335.9,426.9L335.9,426.9z"/>
		<path class="st8" d="M392,426.9c-10.8,5.8-23.2,9.1-36.3,9.1s-25.5-3.3-36.3-9.1c2.9-17.5,18.1-30.8,36.3-30.8
			S389.2,409.5,392,426.9z"/>
		<circle class="st11" cx="355.7" cy="359.3" r="36.8"/>
		<path class="st12" d="M355.7,322.5c-9.7,0-18.6,3.8-25.2,9.9c0,0,22.1,26.9,62,26.9C392.6,339,376.1,322.5,355.7,322.5
			L355.7,322.5z"/>
	</g>
	<g>
		<path class="st13" d="M153.5,114.4c0,29.2-16.3,54.7-40.4,67.6c-10.8,5.8-23.2,9.1-36.3,9.1s-25.5-3.3-36.3-9.1
			C16.3,169.1,0,143.7,0,114.4c0-42.4,34.4-76.7,76.7-76.7S153.5,72.1,153.5,114.4z"/>
		<path class="st7" d="M56.9,182c8.5,4.6,18,7.6,28.1,8.7c-2.7,0.3-5.5,0.4-8.2,0.4c-13.1,0-25.5-3.3-36.3-9.1
			C16.3,169.1,0,143.7,0,114.4c0-42.4,34.4-76.7,76.7-76.7c2.8,0,5.5,0.1,8.2,0.4c-38.5,4.1-68.5,36.7-68.5,76.3
			C16.5,143.7,32.8,169.1,56.9,182L56.9,182z"/>
		<path class="st8" d="M113.1,182c-10.8,5.8-23.2,9.1-36.3,9.1s-25.5-3.3-36.3-9.1c2.9-17.5,18.1-30.8,36.3-30.8
			S110.2,164.6,113.1,182z"/>
		<circle class="st11" cx="76.7" cy="114.4" r="36.8"/>
		<path class="st14" d="M76.7,77.6c-9.7,0-18.6,3.8-25.2,9.9c0,0,22.1,26.9,62,26.9C113.6,94.1,97.1,77.6,76.7,77.6z"/>
	</g>
</g>
</svg>
