<?xml version="1.0" encoding="utf-8"?>
<!-- Generator: Adobe Illustrator 26.3.1, SVG Export Plug-In . SVG Version: 6.00 Build 0)  -->
<svg version="1.1" id="Capa_1" xmlns="http://www.w3.org/2000/svg" xmlns:xlink="http://www.w3.org/1999/xlink" x="0px" y="0px"
	 viewBox="0 0 512 512" style="enable-background:new 0 0 512 512;" xml:space="preserve">
<style type="text/css">
	.st0{fill:#CCA7BF;}
	.st1{fill:#BF92B0;}
	.st2{fill:#FFD15B;}
	.st3{fill:#F3EAEF;}
	.st4{fill:#D8ECFE;}
	.st5{fill:#C4E2FF;}
	.st6{fill:#8F577D;}
	.st7{fill:#F3F5F7;}
	.st8{fill:#E7ECEF;}
	.st9{display:none;}
	.st10{display:inline;fill:#01C0FA;}
	.st11{fill:#E5D3E0;}
	.st12{fill:#01D0FB;}
	.st13{fill:#714B67;}
	.st14{display:none;fill:#FFFFFF;}
	.st15{fill:#8F8F8F;}
	.st16{fill:#FFFFFF;}
</style>
<g>
	<path class="st0" d="M488,256c0,34.5-7.5,67.2-21,96.7c-1.3,2.9-17.2,5.7-18.7,8.5c-1.7,3.3,11.1,6.4,9.3,9.6
		c-16.8,29.4-39.8,54.8-67.3,74.4c-2.6,1.8-16.1-0.3-18.8,1.5c-3,2,4.8,7.8,1.7,9.6c-28.5,16.7-60.9,27.5-95.5,30.8
		c-4,0.4-8.5-7.3-12.6-7.2c-2,0.1-3.8,4.5-5.7,6.8c-0.7,0.8-1.4,1.4-2.1,1.4c-0.5,0-0.9,0-1.4,0c-6.5,0-13-0.3-19.4-0.8
		c-27.4-2.3-53.4-9.3-77.3-20.2c-4.1-1.9-6.5-13.1-10.4-15.2c-2.1-1.1-5.7,7-7.7,5.9c-29.4-16.8-54.8-39.8-74.4-67.3
		c-1.6-2.3,1.3-15.9-0.3-18.2c-2.1-3.2-8.5,4.2-10.6,1.4l-0.2-0.2C35.6,338.8,24,298.8,24,256c0-34.5,7.5-67.2,21-96.6
		c1.6-3.5,11.2-7,13-10.4c1.3-2.5-4.8-5.1-3.8-7.6c0-0.1,0.1-0.1,0.1-0.2c16.8-29.4,39.8-54.8,67.3-74.4l0.3-0.2
		c3-1.8,11.4-1.2,14.2-3c2.8-1.8-0.1-5.9,2.4-7.8l0.3-0.2C167.3,39,199.7,28.2,234.3,25c0.1,0,0.3,0.1,0.5,0.2
		c1.2,0.6,4.1,2.5,6.4,3.9c1.5,0.9,2.7,1.6,3,1.6c2.9-0.2,4-1.9,5.1-3.4c1.1-1.6,2.2-3.2,5.3-3.2c0.4,0,0.9,0,1.4,0
		c3.7,0,7.4,0.1,11.1,0.3c30.4,1.4,59.3,8.7,85.6,20.8c4,1.8,6.5,14.4,10.4,16.4c2.1,1.1,5.7-8.3,7.8-7.1
		c29.4,16.8,54.8,39.8,74.4,67.3c2.1,2.9,1.2,12.7,3.1,15.7c1.7,2.7,6.3-1.4,7.9,1.4C476.4,173.2,488,213.2,488,256L488,256z"/>
	<path class="st1" d="M259.4,486.6c-0.7,0.8-1.4,1.4-2.1,1.4c-0.5,0-0.9,0-1.4,0c-6.5,0-13-0.3-19.4-0.8
		c-27.4-2.3-53.4-9.3-77.3-20.2c-4.1-1.9-6.5-13.1-10.4-15.2c-2.1-1.1-5.7,7-7.7,5.9c-29.4-16.8-54.8-39.8-74.4-67.3
		c-1.6-2.3,1.3-15.9-0.3-18.2c-2.1-3.2-8.5,4.2-10.6,1.4l-0.2-0.2C35.6,338.8,24,298.8,24,256c0-34.5,7.5-67.2,21-96.6
		c1.6-3.5,11.2-7,13-10.4c1.3-2.5-4.8-5.1-3.8-7.6c0-0.1,0.1-0.1,0.1-0.2c16.8-29.4,39.8-54.8,67.3-74.4l0.3-0.2
		c3-1.8,11.4-1.2,14.2-3c2.8-1.8-0.1-5.9,2.4-7.8l0.3-0.2C167.3,39,199.7,28.2,234.3,25c0.1,0,0.3,0.1,0.5,0.2
		c1.2,0.6,4.1,2.5,6.4,3.9C139.1,54.1,63.4,146.2,63.4,256C63.4,372.2,148.3,468.7,259.4,486.6L259.4,486.6z"/>
	<path class="st2" d="M267.1,24.2c-6,0.8-11.9,1.8-17.7,3c1.1-1.6,2.2-3.2,5.3-3.2c0.4,0,0.9,0,1.4,0
		C259.7,24,263.4,24.1,267.1,24.2z"/>
	<g>
		<g>
			<path class="st3" d="M275.6,49.3c0,3-1.2,5.9-3.4,8l-28.4,27.9l-28.1,6.6L259,49.3l-20-19.7l-4.7-4.6c0.8-0.1,1.5-0.1,2.2-0.2
				c6-0.5,12-0.8,18.1-0.8l1.9,1.9l15.7,15.4C274.4,43.4,275.6,46.3,275.6,49.3z"/>
		</g>
		<g>
			<path class="st3" d="M170.7,75.8l-10.6,38.3l-17.2,5.9l12.3-44.6l-5-1.3l-28.6-7.4l0.3-0.2c3-1.8,11.4-1.2,14.2-3
				c2.8-1.8-0.1-5.9,2.4-7.8l0.3-0.2l23.9,6.2c0.9,0.2,1.8,0.6,2.6,1c1.8,1,3.2,2.4,4.3,4.2C171.1,69.8,171.5,72.9,170.7,75.8z"/>
		</g>
		<g>
			<path class="st3" d="M102,181.1L89.6,193l-7.5-28.9l-3.7-14.1L45,159.4c1.6-3.5,11.2-7,13-10.4c1.3-2.5-4.8-5.1-3.8-7.6
				c0-0.1,0.1-0.1,0.1-0.2l23.8-6.6c2.9-0.8,6-0.4,8.6,1.1c2.6,1.5,4.5,4,5.3,6.9l0.2,0.8L102,181.1z"/>
		</g>
		<g>
			<path class="st3" d="M141.8,375.1l-54-14.9l-12.3-3.4l-8.7,33.5c-1.6-2.3,1.3-15.9-0.3-18.2c-2.1-3.2-8.5,4.2-10.6,1.4l-0.2-0.2
				l6.2-23.9c0.8-2.9,2.6-5.4,5.3-6.9c2.6-1.5,5.7-1.9,8.6-1.1l4.1,1.1l34.3,9.5L141.8,375.1z"/>
		</g>
		<g>
			<path class="st3" d="M151.6,438.8l7.8,28.1c-4.1-1.9-6.5-13.1-10.4-15.2c-2.1-1.1-5.7,7-7.7,5.9l-6.6-23.8
				c-0.8-2.9-0.4-6,1.1-8.6c0,0,0.1-0.1,0.1-0.1c1.5-2.5,3.9-4.4,6.8-5.1l65.8-16.4l3.6,14.5l-61.9,15.4L151.6,438.8z"/>
		</g>
		<g>
			<path class="st3" d="M292.4,423.7l-10.5-10.6l-42.1,41.6c-2.2,2.1-3.4,5-3.4,8c0,3,1.2,5.9,3.4,8l15.5,15.2l2.1,2.1
				c3.2,0,6.5-0.1,9.7-0.3c3.6-0.2,7.1-0.4,10.7-0.7L253,462.7L292.4,423.7z"/>
		</g>
		<g>
			<path class="st3" d="M390.3,445.2c-5.5,3.9-11.2,7.6-17.1,11.1l-23.9-6.2c-2.9-0.8-5.4-2.6-6.9-5.2c-1.5-2.6-1.9-5.7-1.1-8.6
				l10.6-38.4l20.5-18l-15.7,56.7L390.3,445.2z"/>
		</g>
		<g>
			<path class="st3" d="M467,352.7c-2.9,6.2-6,12.2-9.3,18.1l-23.8,6.6c-1,0.3-2,0.4-3,0.4c-1.9,0-3.9-0.5-5.6-1.5
				c-2.6-1.5-4.5-4-5.3-6.9l-10-38.5l10.5-19.1l13,50.1L467,352.7z"/>
		</g>
		<g>
			<path class="st3" d="M456.2,138.8l-6.2,23.9c-0.8,2.9-2.6,5.4-5.3,6.9c-1.7,1-3.6,1.5-5.6,1.5c-1,0-2-0.1-3-0.4l-38.4-10.6
				l-11.9-18.9l50.6,14l8.7-33.6L456.2,138.8z"/>
		</g>
		<g>
			<path class="st3" d="M370.8,54.3l6.6,23.8c0.8,2.9,0.4,6-1.1,8.6c-1.5,2.6-4,4.5-6.9,5.2l-38.5,10l-20.3-10.2l51.4-13.3L352.7,45
				L370.8,54.3z"/>
		</g>
	</g>
	<circle class="st4" cx="256" cy="256" r="181.4"/>
	<path class="st5" d="M257,437.4h-1c-100.2,0-181.4-81.2-181.4-181.4S155.8,74.6,256,74.6h1C170.9,90.1,105.5,165.4,105.5,256
		S170.9,421.9,257,437.4z"/>
	<path class="st1" d="M401.2,263.4l-18.7,30.2c-1.2,1.9-1.9,4.1-2.1,6.3l-2.6,35.4c-0.4,5.3-3.8,9.9-8.7,11.9l-32.9,13.4
		c-2.1,0.9-3.9,2.2-5.4,3.9l-22.9,27.1c-3.4,4.1-8.9,5.8-14,4.6l-34.5-8.5c-2.2-0.5-4.5-0.5-6.7,0l-34.5,8.5
		c-5.2,1.3-10.6-0.5-14-4.6l-22.9-27.1c-1.5-1.7-3.3-3.1-5.4-3.9l-32.9-13.4c-4.9-2-8.3-6.6-8.7-11.9l-2.6-35.4
		c-0.2-2.2-0.9-4.4-2.1-6.3l-18.7-30.2c-2.8-4.5-2.8-10.2,0-14.7l18.7-30.2c1.2-1.9,1.9-4.1,2.1-6.3l2.6-35.4
		c0.4-5.3,3.8-9.9,8.7-11.9l32.9-13.4c2.1-0.9,3.9-2.2,5.4-3.9l22.9-27.1c3.4-4.1,8.9-5.8,14-4.6l34.5,8.5c2.2,0.5,4.5,0.5,6.7,0
		l34.5-8.5c5.2-1.3,10.6,0.5,14,4.6l22.9,27.1c1.5,1.7,3.3,3.1,5.4,3.9l32.9,13.4c4.9,2,8.3,6.6,8.7,11.9l2.6,35.4
		c0.2,2.2,0.9,4.4,2.1,6.3l18.7,30.2C404,253.1,404,258.9,401.2,263.4L401.2,263.4z"/>
	<path class="st6" d="M202.6,346.6c-4.4-5.2-10-9.2-16.2-11.8l-23.8-9.7c-0.7-0.3-1.1-0.9-1.2-1.6l-1.9-25.6
		c-0.5-6.7-2.6-13.3-6.2-19L139.8,257c-0.4-0.6-0.4-1.4,0-2l13.5-21.9c3.5-5.7,5.7-12.3,6.2-19l1.9-25.6c0.1-0.7,0.5-1.3,1.2-1.6
		l23.8-9.7c6.2-2.6,11.8-6.6,16.2-11.8l16.6-19.6c0.5-0.5,1.2-0.8,1.9-0.6l24.9,6.1c3.3,0.8,6.7,1.2,10,1.2s6.8-0.4,10-1.2l24.9-6.1
		c0.7-0.2,1.4,0.1,1.9,0.6l16.6,19.6c4.4,5.2,10,9.2,16.2,11.8l23.8,9.7c0.7,0.3,1.1,0.9,1.2,1.6l1.9,25.6c0.5,6.7,2.6,13.3,6.2,19
		l13.5,21.9c0.4,0.6,0.4,1.4,0,2l-13.5,21.9c-3.5,5.7-5.7,12.3-6.2,19l-1.9,25.6c-0.1,0.7-0.5,1.3-1.2,1.6l-23.8,9.7
		c-6.2,2.6-11.8,6.6-16.2,11.8l-16.6,19.6c-0.5,0.5-1.2,0.8-1.9,0.6l-24.9-6.1c-3.3-0.8-6.7-1.2-10-1.2s-6.8,0.4-10,1.2l-24.9,6.1
		c-0.7,0.2-1.4-0.1-1.9-0.6L202.6,346.6z"/>
	<path class="st7" d="M512,195.6v120.8c0,4.4-3.6,8-8,8H8c-4.4,0-2.8-8.7-2.8-13.2l0.8-115.7c0-4.4-2.4-8,2.1-8h496
		C508.4,187.6,512,191.2,512,195.6z"/>
	<path class="st8" d="M38.2,324.4H8c-4.4,0-8-3.6-8-8V195.6c0-4.4,3.6-8,8-8h30.2c-4.6,0-8.2,3.7-8.2,8.2v120.3
		C30,320.7,33.7,324.4,38.2,324.4L38.2,324.4z"/>
	<g class="st9">
		<path class="st10" d="M279.3,220.2c-4.1,0-7.5,3.4-7.5,7.5v55.6c0,4.1,3.4,7.5,7.5,7.5s7.5-3.4,7.5-7.5v-55.6
			C286.8,223.5,283.5,220.2,279.3,220.2L279.3,220.2z"/>
		<path class="st10" d="M357.8,220.2c-4.1,0-7.5,3.4-7.5,7.5v55.6c0,4.1,3.4,7.5,7.5,7.5s7.5-3.4,7.5-7.5v-55.6
			C365.3,223.5,362,220.2,357.8,220.2L357.8,220.2z"/>
		<path class="st10" d="M329.8,236.6c4.1,0,7.5-3.4,7.5-7.5s-3.4-7.5-7.5-7.5h-21.9c-4.4,0-8,3.6-8,8v54.7c0,4.1,3.4,7.5,7.5,7.5
			s7.5-3.4,7.5-7.5v-20.6H328c4.1,0,7.5-3.4,7.5-7.5s-3.4-7.5-7.5-7.5h-13.1v-12.1L329.8,236.6L329.8,236.6z"/>
		<path class="st10" d="M409.1,236.6c4.1,0,7.5-3.4,7.5-7.5s-3.4-7.5-7.5-7.5h-23.2c-4.1,0-7.5,3.4-7.5,7.5v55.1
			c0,4.1,3.4,7.5,7.5,7.5h23.2c4.1,0,7.5-3.4,7.5-7.5s-3.4-7.5-7.5-7.5h-15.7v-12.6h14c4.1,0,7.5-3.4,7.5-7.5s-3.4-7.5-7.5-7.5h-14
			v-12.6L409.1,236.6L409.1,236.6z"/>
		<path class="st10" d="M134.3,235.4c4.1,0,7.5-3.4,7.5-7.5s-3.4-7.5-7.5-7.5h-23.2c-4.1,0-7.5,3.4-7.5,7.5V283
			c0,4.1,3.4,7.5,7.5,7.5h23.2c4.1,0,7.5-3.4,7.5-7.5s-3.4-7.5-7.5-7.5h-15.7V263h14c4.1,0,7.5-3.4,7.5-7.5s-3.4-7.5-7.5-7.5h-14
			v-12.6L134.3,235.4L134.3,235.4z"/>
		<path class="st10" d="M452.5,222.2h-15.3c-2,0-3.9,0.8-5.3,2.2c-1.4,1.4-2.2,3.3-2.2,5.3l0.1,54c0,2,0.8,3.9,2.2,5.3
			c1.4,1.4,3.3,2.2,5.3,2.2h0c0.5,0,11.4,0,15.7-0.1c16.6-0.3,28.7-14.7,28.7-34.4C481.8,236.1,470,222.2,452.5,222.2L452.5,222.2z
			 M452.8,276.1c-1.9,0-5,0.1-8,0.1c0-6.3-0.1-32.3-0.1-38.9h7.8c13.3,0,14.3,14.9,14.3,19.5C466.8,266.3,462.5,275.9,452.8,276.1z"
			/>
		<path class="st10" d="M87.9,269.7c-3.2-2.7-7.9-2.2-10.6,0.9c-0.5,0.6-1,1.1-1.5,1.6c-2.7,2.4-6.2,3.6-10.3,3.6
			c-11.2,0-20.3-9.1-20.3-20.3c0-11.2,9.1-20.3,20.3-20.3c4.1,0,8,1.2,11.4,3.5c3.4,2.3,8.1,1.4,10.4-2c2.3-3.4,1.4-8.1-2-10.4
			c-5.8-3.9-12.7-6-19.7-6c-19.5,0-35.3,15.8-35.3,35.3s15.8,35.3,35.3,35.3c7.8,0,14.8-2.6,20.2-7.4c1.1-0.9,2.1-2,3-3.1
			C91.5,277.1,91,272.3,87.9,269.7L87.9,269.7z"/>
		<path class="st10" d="M251.3,220.2h-30.7c-4.1,0-7.5,3.4-7.5,7.5s3.4,7.5,7.5,7.5h7.8v48.1c0,4.1,3.4,7.5,7.5,7.5s7.5-3.4,7.5-7.5
			v-48.1h7.9c4.1,0,7.5-3.4,7.5-7.5S255.4,220.2,251.3,220.2L251.3,220.2z"/>
		<path class="st10" d="M200,242.1c0-12.1-10.2-22-22.8-22h-14.8c0,0,0,0,0,0c0,0,0,0,0,0c-4.1,0-7.5,3.4-7.5,7.5v55.6
			c0,4.1,3.4,7.5,7.5,7.5s7.5-3.4,7.5-7.5V269l16.9,19.3c1.5,1.7,3.6,2.5,5.6,2.5c1.8,0,3.5-0.6,5-1.9c3.1-2.7,3.4-7.5,0.7-10.6
			l-13.6-15.4C193.5,259.9,200,251.7,200,242.1L200,242.1z M177.2,249.1c-1.7,0-4.5,0-7.2,0c0-2.6,0-5.3,0-7c0-1.4,0-4.2,0-7h7.3
			c4.2,0,7.8,3.2,7.8,7C185,245.9,181.4,249.1,177.2,249.1z"/>
	</g>
	<g>
		<path class="st11" d="M79.9,342.4l-4.1-1.1c-2.9-0.8-6-0.4-8.6,1.1c-2.6,1.5-4.5,4-5.3,6.9l-6.2,23.9l0,0l0,0l11,17.1c0,0,0,0,0,0
			l8.7-33.5l12.3,3.4C84.9,354.4,82.3,348.5,79.9,342.4L79.9,342.4z"/>
		<path class="st11" d="M92,142.6c-0.8-2.9-2.6-5.4-5.3-6.9c-2.6-1.5-5.7-1.9-8.6-1.1l-23.8,6.6c0,0.1-0.1,0.1-0.1,0.1
			c-1,1.9-8.8,17.1-9.2,18l0,0c0,0,0,0,0,0l33.5-9.3l3.7,14.1c3-7.1,6.4-14,10.1-20.7L92,142.6z"/>
		<path class="st11" d="M159.3,467l-7.8-28.1c-5.5-4.3-10.7-8.9-15.8-13.8c0,0-0.1,0.1-0.1,0.1c-1.5,2.6-1.9,5.7-1.1,8.6l6.6,23.8h0
			l0,0C147.1,461,153.1,464.1,159.3,467L159.3,467C159.3,467,159.3,467,159.3,467L159.3,467z"/>
		<path class="st11" d="M162.7,61.9l-23.9-6.2l-0.3,0.2c0,0,0,0,0,0l-16.8,10.9h0l0,0l28.6,7.4c4.9-3.9,9.9-7.7,15.1-11.2
			C164.5,62.5,163.6,62.2,162.7,61.9L162.7,61.9z"/>
		<path class="st11" d="M256.5,25.8c-5.9,1-11.8,2.3-17.6,3.8l-4.7-4.6c0.8-0.1,1.5-0.1,2.2-0.2c6-0.5,12-0.8,18.1-0.8L256.5,25.8z"
			/>
		<path class="st12" d="M267.1,487.8c-3.2,0.2-6.4,0.2-9.7,0.3l-2.1-2.1C259.2,486.6,263.1,487.3,267.1,487.8L267.1,487.8z"/>
	</g>
</g>
<g>
	<g>
		<path class="st13" d="M363,306.8c0,1-0.8,1.8-1.8,1.8H190.4c-1,0-1.8-0.8-1.8-1.8v-25.2c0-1,0.8-1.8,1.8-1.8h170.8
			c1,0,1.8,0.8,1.8,1.8V306.8z"/>
		<path class="st14" d="M208.4,297.4c0.1,0,0.2,0.1,0.3,0.1l0.6,0.7c-0.5,0.6-1.1,1-1.8,1.4c-0.8,0.3-1.7,0.5-2.6,0.5
			c-0.8,0-1.6-0.1-2.4-0.5c-0.7-0.3-1.3-0.7-1.8-1.3c-0.5-0.6-0.9-1.3-1.2-2c-0.3-0.8-0.4-1.7-0.4-2.6c0-0.9,0.1-1.7,0.5-2.6
			c0.3-0.7,0.7-1.4,1.3-2c0.5-0.6,1.2-1,1.9-1.3c0.8-0.3,1.6-0.5,2.5-0.5c0.8,0,1.6,0.1,2.3,0.4c0.6,0.3,1.2,0.6,1.7,1.1l-0.5,0.8
			l-0.2,0.2c-0.1,0.1-0.1,0.1-0.2,0.1c-0.1,0-0.2-0.1-0.3-0.1c-0.1-0.1-0.2-0.1-0.3-0.2c-0.1-0.1-0.3-0.2-0.4-0.3
			c-0.2-0.1-0.3-0.2-0.5-0.3c-0.2-0.1-0.5-0.2-0.7-0.2c-0.3-0.1-0.7-0.1-1-0.1c-0.6,0-1.2,0.1-1.8,0.3c-0.5,0.2-1,0.5-1.4,0.9
			c-0.4,0.4-0.7,1-0.9,1.5c-0.4,1.3-0.4,2.7,0,4.1c0.2,0.6,0.5,1.1,0.9,1.5c0.4,0.4,0.8,0.7,1.4,0.9c0.5,0.2,1.1,0.3,1.7,0.3
			c0.3,0,0.7,0,1-0.1c0.5-0.1,1-0.3,1.5-0.6c0.2-0.2,0.4-0.3,0.6-0.5C208.1,297.4,208.2,297.4,208.4,297.4z"/>
		<path class="st14" d="M214.7,291.1c0.6,0,1.2,0.1,1.7,0.3c0.5,0.2,0.9,0.5,1.3,0.9c0.4,0.4,0.7,0.9,0.8,1.4
			c0.2,0.6,0.3,1.2,0.3,1.8c0,0.6-0.1,1.2-0.3,1.8c-0.2,0.5-0.5,1-0.8,1.4c-0.4,0.4-0.8,0.7-1.3,0.9c-1.1,0.4-2.3,0.4-3.4,0
			c-0.5-0.2-0.9-0.5-1.3-0.9c-0.4-0.4-0.7-0.9-0.8-1.4c-0.2-0.6-0.3-1.2-0.3-1.8c0-0.6,0.1-1.2,0.3-1.8c0.2-0.5,0.5-1,0.8-1.4
			c0.4-0.4,0.8-0.7,1.3-0.9C213.6,291.2,214.1,291.1,214.7,291.1z M214.7,298.9c0.7,0.1,1.5-0.3,1.9-0.8c0.8-1.5,0.8-3.3,0-4.8
			c-0.5-0.6-1.2-0.9-1.9-0.9c-0.4,0-0.8,0.1-1.1,0.2c-0.3,0.1-0.6,0.4-0.8,0.6c-0.2,0.3-0.4,0.7-0.5,1c-0.1,0.4-0.2,0.9-0.2,1.4
			c0,0.5,0,0.9,0.2,1.4c0.1,0.4,0.3,0.7,0.5,1c0.2,0.3,0.5,0.5,0.8,0.6C213.9,298.8,214.3,298.9,214.7,298.9z"/>
		<path class="st14" d="M220.7,299.9v-8.6h0.9c0.2,0,0.4,0.1,0.4,0.3l0.1,0.9c0.3-0.4,0.7-0.7,1.1-1c0.4-0.3,0.9-0.4,1.4-0.4
			c0.5,0,1,0.1,1.4,0.5c0.4,0.4,0.6,0.8,0.8,1.3c0.1-0.3,0.3-0.6,0.5-0.8c0.2-0.2,0.4-0.4,0.7-0.6c0.2-0.1,0.5-0.3,0.8-0.3
			c0.3-0.1,0.6-0.1,0.8-0.1c0.4,0,0.8,0.1,1.2,0.2c0.3,0.1,0.6,0.3,0.9,0.6c0.3,0.3,0.5,0.7,0.6,1c0.2,0.5,0.2,0.9,0.2,1.4v5.5h-1.5
			v-5.5c0-0.6-0.1-1.1-0.5-1.6c-0.3-0.4-0.8-0.6-1.3-0.5c-0.3,0-0.5,0.1-0.7,0.2c-0.2,0.1-0.4,0.2-0.6,0.4c-0.2,0.2-0.3,0.4-0.4,0.6
			c-0.1,0.3-0.2,0.6-0.2,0.9v5.5h-1.5v-5.5c0-0.6-0.1-1.1-0.4-1.6c-0.3-0.4-0.7-0.6-1.2-0.5c-0.4,0-0.7,0.1-1,0.3
			c-0.3,0.2-0.6,0.5-0.9,0.8v6.5h-1.5V299.9z"/>
		<path class="st14" d="M234.7,299.9v-8.6h0.9c0.2,0,0.4,0.1,0.4,0.3l0.1,0.9c0.3-0.4,0.7-0.7,1.1-1c0.4-0.3,0.9-0.4,1.4-0.4
			c0.5,0,1,0.1,1.4,0.5c0.4,0.4,0.6,0.8,0.8,1.3c0.1-0.3,0.3-0.6,0.5-0.8c0.2-0.2,0.4-0.4,0.7-0.6c0.2-0.1,0.5-0.3,0.8-0.3
			c0.3-0.1,0.6-0.1,0.8-0.1c0.4,0,0.8,0.1,1.2,0.2c0.3,0.1,0.6,0.3,0.9,0.6c0.3,0.3,0.5,0.7,0.6,1c0.2,0.5,0.2,0.9,0.2,1.4v5.5h-1.5
			v-5.5c0-0.6-0.1-1.1-0.5-1.6c-0.3-0.4-0.8-0.6-1.3-0.5c-0.3,0-0.5,0.1-0.7,0.2c-0.2,0.1-0.4,0.2-0.6,0.4c-0.2,0.2-0.3,0.4-0.4,0.6
			c-0.1,0.3-0.2,0.6-0.2,0.9v5.5h-1.5v-5.5c0-0.6-0.1-1.1-0.4-1.6c-0.3-0.4-0.7-0.6-1.2-0.5c-0.4,0-0.7,0.1-1,0.3
			c-0.3,0.2-0.6,0.5-0.9,0.8v6.5h-1.5L234.7,299.9z"/>
		<path class="st14" d="M250.1,291.3v5.5c0,0.5,0.1,1.1,0.5,1.5c0.4,0.4,0.8,0.6,1.4,0.5c0.4,0,0.9-0.1,1.3-0.3
			c0.4-0.2,0.8-0.5,1.1-0.9v-6.4h1.5v8.6h-0.9c-0.2,0-0.4-0.1-0.4-0.3l-0.1-0.9c-0.4,0.4-0.8,0.7-1.3,1c-0.5,0.3-1.1,0.4-1.6,0.4
			c-0.4,0-0.9-0.1-1.3-0.2c-0.4-0.1-0.7-0.4-0.9-0.7c-0.3-0.3-0.5-0.7-0.6-1c-0.1-0.4-0.2-0.9-0.2-1.4v-5.5L250.1,291.3L250.1,291.3
			z"/>
		<path class="st14" d="M258.2,299.9v-8.6h0.9c0.2,0,0.4,0.1,0.4,0.3l0.1,0.9c0.4-0.4,0.8-0.7,1.3-1c0.5-0.3,1.1-0.4,1.6-0.4
			c0.4,0,0.9,0.1,1.3,0.2c0.4,0.1,0.7,0.4,0.9,0.7c0.3,0.3,0.5,0.7,0.6,1c0.1,0.4,0.2,0.9,0.2,1.4v5.5h-1.5v-5.5
			c0-0.5-0.1-1.1-0.5-1.5c-0.3-0.4-0.8-0.6-1.4-0.5c-0.4,0-0.9,0.1-1.3,0.3c-0.4,0.2-0.8,0.5-1.1,0.9v6.4L258.2,299.9L258.2,299.9z"
			/>
		<path class="st14" d="M269.8,288.6c0,0.1,0,0.3-0.1,0.4c-0.1,0.1-0.2,0.3-0.3,0.4c-0.1,0.1-0.2,0.2-0.4,0.2
			c-0.1,0.1-0.3,0.1-0.4,0.1c-0.1,0-0.3,0-0.4-0.1c-0.1-0.1-0.3-0.2-0.4-0.2c-0.1-0.1-0.2-0.2-0.2-0.4c-0.1-0.3-0.1-0.6,0-0.8
			c0.1-0.1,0.1-0.2,0.2-0.4c0.1-0.1,0.2-0.2,0.4-0.2c0.3-0.1,0.6-0.1,0.8,0c0.1,0.1,0.2,0.1,0.4,0.2c0.1,0.1,0.2,0.2,0.3,0.4
			C269.7,288.3,269.8,288.4,269.8,288.6z M269.4,291.3v8.6h-1.5v-8.6H269.4z"/>
		<path class="st14" d="M274.7,300.1c-0.6,0-1.1-0.2-1.6-0.6c-0.4-0.5-0.6-1.1-0.6-1.7v-5.3h-1c-0.1,0-0.2,0-0.2-0.1
			c-0.1-0.1-0.1-0.2-0.1-0.3v-0.6l1.4-0.2l0.4-2.7c0-0.1,0-0.2,0.1-0.2c0.1-0.1,0.2-0.1,0.3-0.1h0.8v3h2.5v1.1h-2.5v5.2
			c0,0.3,0.1,0.6,0.3,0.8c0.2,0.2,0.4,0.3,0.7,0.3c0.1,0,0.3,0,0.4-0.1l0.3-0.2c0.1,0,0.1-0.1,0.2-0.2c0,0,0.1-0.1,0.2-0.1
			c0.1,0,0.2,0.1,0.2,0.2l0.5,0.7c-0.3,0.3-0.6,0.4-0.9,0.6C275.5,300,275.1,300.1,274.7,300.1z"/>
		<path class="st14" d="M281,302.5c0,0.1-0.1,0.2-0.2,0.3c-0.1,0.1-0.2,0.1-0.4,0.1h-1.1l1.6-3.4l-3.5-8.1h1.3c0.1,0,0.2,0,0.3,0.1
			c0.1,0.1,0.1,0.2,0.2,0.2l2.3,5.4c0.1,0.1,0.1,0.3,0.2,0.4c0.1,0.1,0.1,0.3,0.1,0.4c0.1-0.1,0.1-0.2,0.1-0.4
			c0.1-0.1,0.1-0.3,0.2-0.4l2.2-5.4c0-0.1,0.1-0.1,0.2-0.2c0.1-0.1,0.2-0.1,0.3-0.1h1.2L281,302.5z"/>
		<path class="st14" d="M297,295.9l0.2,0.5l0.2-0.5c0.1-0.1,0.1-0.3,0.2-0.4l4.1-7.5c0-0.1,0.1-0.2,0.2-0.3c0.1-0.1,0.2-0.1,0.4-0.1
			h1.2v12.2h-1.5v-9.7l-4.2,7.7c-0.1,0.2-0.3,0.4-0.6,0.4h-0.3c-0.3,0-0.5-0.1-0.6-0.4l-4.3-7.7c0,0.2,0.1,0.3,0.1,0.4v9.4h-1.5
			v-12.2h1.2c0.1,0,0.2,0,0.4,0.1c0.1,0.1,0.2,0.2,0.2,0.3l4.2,7.5C296.8,295.7,296.9,295.8,297,295.9z"/>
		<path class="st14" d="M309.6,291.1c0.5,0,1,0.1,1.5,0.3c0.4,0.2,0.8,0.4,1.1,0.7c0.3,0.3,0.6,0.7,0.7,1.2c0.2,0.5,0.3,1.1,0.3,1.7
			c0,0.2,0,0.3-0.1,0.5c-0.1,0.1-0.2,0.1-0.3,0.1h-5.7c0,0.5,0.1,0.9,0.2,1.4c0.1,0.4,0.3,0.7,0.6,1c0.2,0.3,0.5,0.5,0.8,0.6
			c0.3,0.2,0.7,0.2,1.1,0.2c0.3,0,0.7,0,1-0.2c0.2-0.1,0.5-0.2,0.7-0.3c0.2-0.1,0.3-0.2,0.5-0.3c0.1-0.1,0.2-0.1,0.4-0.2
			c0.1,0,0.2,0.1,0.3,0.2l0.4,0.6c-0.2,0.2-0.4,0.4-0.7,0.6c-0.3,0.2-0.5,0.3-0.8,0.4c-0.3,0.1-0.6,0.2-0.9,0.3
			c-0.3,0.1-0.6,0.1-0.9,0.1c-0.6,0-1.1-0.1-1.7-0.3c-0.5-0.2-0.9-0.5-1.3-0.9c-0.4-0.4-0.7-0.9-0.8-1.5c-0.2-0.6-0.3-1.3-0.3-2
			c0-0.6,0.1-1.1,0.3-1.7c0.2-0.5,0.4-0.9,0.8-1.4c0.4-0.4,0.8-0.7,1.3-0.9C308.5,291.2,309,291.1,309.6,291.1z M309.6,292.3
			c-0.6,0-1.3,0.2-1.7,0.6c-0.5,0.5-0.7,1.1-0.8,1.8h4.7c0-0.3,0-0.7-0.2-1c-0.1-0.3-0.2-0.5-0.4-0.8c-0.2-0.2-0.4-0.4-0.7-0.5
			C310.2,292.3,309.9,292.3,309.6,292.3z"/>
		<path class="st14" d="M315.1,299.9v-8.6h0.9c0.2,0,0.4,0.1,0.4,0.3l0.1,0.9c0.3-0.4,0.7-0.7,1.1-1c0.4-0.3,0.9-0.4,1.4-0.4
			c0.5,0,1,0.1,1.4,0.5c0.4,0.4,0.6,0.8,0.8,1.3c0.1-0.3,0.3-0.6,0.5-0.8c0.2-0.2,0.4-0.4,0.7-0.6c0.2-0.1,0.5-0.3,0.8-0.3
			c0.3-0.1,0.6-0.1,0.8-0.1c0.4,0,0.8,0.1,1.2,0.2c0.3,0.1,0.6,0.3,0.9,0.6c0.3,0.3,0.5,0.7,0.6,1c0.2,0.5,0.2,0.9,0.2,1.4v5.5h-1.5
			v-5.5c0-0.6-0.1-1.1-0.5-1.6c-0.3-0.4-0.8-0.6-1.3-0.5c-0.3,0-0.5,0.1-0.7,0.2c-0.2,0.1-0.4,0.2-0.6,0.4c-0.2,0.2-0.3,0.4-0.4,0.6
			c-0.1,0.3-0.2,0.6-0.2,0.9v5.5h-1.5v-5.5c0-0.6-0.1-1.1-0.4-1.6c-0.3-0.4-0.7-0.6-1.2-0.5c-0.4,0-0.7,0.1-1,0.3
			c-0.3,0.2-0.6,0.5-0.9,0.8v6.5h-1.5L315.1,299.9z"/>
		<path class="st14" d="M329.2,299.9v-12.6h1.5v5.2c0.4-0.4,0.8-0.7,1.3-1c0.5-0.3,1.1-0.4,1.6-0.4c0.5,0,0.9,0.1,1.4,0.3
			c0.4,0.2,0.8,0.5,1,0.8c0.3,0.4,0.5,0.9,0.7,1.4c0.2,0.6,0.2,1.2,0.2,1.9c0,0.6-0.1,1.2-0.3,1.8c-0.1,0.5-0.4,1-0.7,1.4
			c-0.3,0.4-0.7,0.7-1.2,0.9c-0.5,0.2-1,0.4-1.6,0.4c-0.5,0-1-0.1-1.4-0.3c-0.4-0.2-0.7-0.5-1-0.9l-0.1,0.8c0,0.2-0.2,0.3-0.4,0.3
			c0,0,0,0,0,0H329.2z M333,292.4c-0.5,0-0.9,0.1-1.3,0.4c-0.4,0.3-0.8,0.6-1,1v4.2c0.2,0.3,0.5,0.6,0.9,0.8
			c0.3,0.1,0.7,0.2,1.1,0.2c0.7,0,1.4-0.3,1.9-0.8c0.5-0.7,0.7-1.6,0.6-2.4c0-0.5,0-1-0.2-1.5c-0.1-0.3-0.2-0.7-0.4-1
			c-0.2-0.2-0.4-0.4-0.7-0.6C333.6,292.4,333.3,292.4,333,292.4z"/>
		<path class="st14" d="M342.1,291.1c0.5,0,1,0.1,1.5,0.3c0.4,0.2,0.8,0.4,1.1,0.7c0.3,0.3,0.6,0.7,0.7,1.2c0.2,0.5,0.3,1.1,0.3,1.7
			c0,0.2,0,0.3-0.1,0.5c-0.1,0.1-0.2,0.1-0.3,0.1h-5.7c0,0.5,0.1,0.9,0.2,1.4c0.1,0.4,0.3,0.7,0.6,1c0.2,0.3,0.5,0.5,0.8,0.6
			c0.3,0.2,0.7,0.2,1.1,0.2c0.3,0,0.7,0,1-0.2c0.2-0.1,0.5-0.2,0.7-0.3c0.2-0.1,0.3-0.2,0.5-0.3c0.1-0.1,0.2-0.1,0.4-0.2
			c0.1,0,0.2,0.1,0.3,0.2l0.4,0.6c-0.2,0.2-0.4,0.4-0.7,0.6c-0.3,0.2-0.5,0.3-0.8,0.4c-0.3,0.1-0.6,0.2-0.9,0.3
			c-0.3,0.1-0.6,0.1-0.9,0.1c-0.6,0-1.1-0.1-1.7-0.3c-0.5-0.2-0.9-0.5-1.3-0.9c-0.4-0.4-0.7-0.9-0.8-1.5c-0.2-0.6-0.3-1.3-0.3-2
			c0-0.6,0.1-1.1,0.3-1.7c0.2-0.5,0.4-0.9,0.8-1.4c0.4-0.4,0.8-0.7,1.3-0.9C340.9,291.2,341.5,291.1,342.1,291.1z M342.1,292.3
			c-0.6,0-1.3,0.2-1.7,0.6c-0.5,0.5-0.7,1.1-0.8,1.8h4.7c0-0.3,0-0.7-0.2-1c-0.1-0.3-0.2-0.5-0.4-0.8c-0.2-0.2-0.4-0.4-0.7-0.5
			C342.8,292.3,342.4,292.3,342.1,292.3L342.1,292.3z"/>
		<path class="st14" d="M347.6,299.9v-8.6h0.9c0.2,0,0.4,0.1,0.4,0.3c0,0,0,0.1,0,0.1l0.1,1.4c0.3-0.5,0.6-1,1.1-1.4
			c0.4-0.3,1-0.5,1.5-0.5c0.2,0,0.4,0,0.6,0.1c0.2,0,0.4,0.1,0.5,0.2l-0.2,1.1c-0.1,0.2-0.1,0.2-0.3,0.2c-0.1,0-0.2-0.1-0.4-0.1
			c-0.2-0.1-0.4-0.1-0.7-0.1c-0.5,0-0.9,0.1-1.3,0.5c-0.4,0.4-0.7,0.8-0.9,1.4v5.5H347.6z"/>
		<path class="st15" d="M338.1,219.1c-14.4,0-26.1,11.7-26.1,26.1c0,14.4,11.7,26.1,26.1,26.1c14.4,0,26.1-11.7,26.1-26.1
			C364.1,230.7,352.4,219.1,338.1,219.1z M338.1,260.8c-8.6,0-15.6-7-15.6-15.6c0-8.6,7-15.6,15.6-15.6s15.6,7,15.6,15.6l0,0
			C353.7,253.8,346.7,260.8,338.1,260.8z"/>
		<path class="st15" d="M283.4,219.1c-14.4,0-26.1,11.7-26.1,26.1c0,14.4,11.7,26.1,26.1,26.1c14.4,0,26.1-11.7,26.1-26.1
			C309.4,230.7,297.7,219.1,283.4,219.1z M283.4,260.8c-8.6,0-15.6-7-15.6-15.6c0-8.6,7-15.6,15.6-15.6c8.6,0,15.6,7,15.6,15.6l0,0
			C299,253.8,292,260.8,283.4,260.8z"/>
		<path class="st13" d="M173.9,219.1c-14.4,0-26.1,11.7-26.1,26.1c0,14.4,11.7,26.1,26.1,26.1c14.4,0,26.1-11.7,26.1-26.1l0,0
			C200,230.7,188.3,219.1,173.9,219.1z M173.9,260.8c-8.6,0-15.6-7-15.6-15.6c0-8.6,7-15.6,15.6-15.6c8.6,0,15.6,7,15.6,15.6l0,0
			C189.6,253.8,182.6,260.8,173.9,260.8z"/>
		<path class="st15" d="M249.5,203.4c-2.9,0-5.2,2.3-5.2,5.2v15.6c-11.5-8.6-27.8-6.3-36.5,5.2c-8.6,11.5-6.3,27.8,5.2,36.5
			c11.5,8.6,27.8,6.3,36.5-5.2c3.4-4.5,5.2-10,5.2-15.6l0,0v-36.5C254.7,205.7,252.4,203.4,249.5,203.4z M228.6,260.7
			c-8.6,0-15.6-7-15.6-15.6s7-15.6,15.6-15.6s15.6,7,15.6,15.6l0,0C244.3,253.7,237.3,260.7,228.6,260.7z"/>
	</g>
	<g>
		<g>
			<path class="st16" d="M228.7,289.2v9.9h-2.1v-7.9h-0.1l-2.3,1.4v-1.9l2.5-1.6H228.7z"/>
			<path class="st16" d="M234.4,299.3c-0.7,0-1.4-0.1-1.9-0.4s-1-0.6-1.3-1c-0.3-0.4-0.5-0.9-0.5-1.5h2.1c0,0.2,0.1,0.5,0.2,0.6
				c0.1,0.2,0.3,0.3,0.6,0.4c0.2,0.1,0.5,0.1,0.8,0.1c0.3,0,0.6-0.1,0.8-0.2c0.2-0.1,0.4-0.3,0.6-0.5c0.1-0.2,0.2-0.4,0.2-0.7
				c0-0.3-0.1-0.5-0.2-0.7c-0.1-0.2-0.4-0.4-0.6-0.5s-0.6-0.2-1-0.2h-0.9v-1.5h0.9c0.3,0,0.6-0.1,0.8-0.2c0.2-0.1,0.4-0.3,0.6-0.5
				s0.2-0.4,0.2-0.7c0-0.2-0.1-0.5-0.2-0.7s-0.3-0.3-0.5-0.4c-0.2-0.1-0.5-0.2-0.7-0.2c-0.3,0-0.5,0.1-0.8,0.2
				c-0.2,0.1-0.4,0.2-0.6,0.4c-0.1,0.2-0.2,0.4-0.2,0.7h-2c0-0.6,0.2-1.1,0.5-1.5s0.7-0.8,1.3-1c0.5-0.2,1.1-0.4,1.8-0.4
				c0.7,0,1.3,0.1,1.8,0.4c0.5,0.2,0.9,0.6,1.2,1c0.3,0.4,0.4,0.9,0.4,1.4c0,0.6-0.2,1-0.5,1.4c-0.3,0.4-0.8,0.6-1.4,0.7v0.1
				c0.7,0.1,1.3,0.3,1.7,0.8c0.4,0.4,0.6,0.9,0.6,1.5c0,0.6-0.2,1.1-0.5,1.5s-0.8,0.8-1.4,1C235.8,299.2,235.2,299.3,234.4,299.3z"
				/>
			<path class="st16" d="M241.6,297.8l-0.1,0.5c0,0.4-0.1,0.9-0.2,1.3s-0.2,0.8-0.4,1.2c-0.1,0.3-0.2,0.6-0.3,0.8h-1.3
				c0-0.2,0.1-0.5,0.2-0.8c0.1-0.3,0.2-0.7,0.2-1.1c0.1-0.4,0.1-0.9,0.1-1.3l0-0.5H241.6z"/>
			<path class="st16" d="M250.3,289.2v9.9h-2.1v-7.9h-0.1l-2.3,1.4v-1.9l2.5-1.6H250.3z"/>
			<path class="st16" d="M252.2,297.4v-1.6l4.1-6.5h1.4v2.3h-0.8l-2.6,4.1v0.1h5.9v1.7H252.2z M256.9,299.1v-2.2l0-0.7v-6.9h2v9.9
				H256.9z"/>
			<path class="st16" d="M263.5,297.8l-0.1,0.5c0,0.4-0.1,0.9-0.2,1.3c-0.1,0.4-0.2,0.8-0.4,1.2c-0.1,0.3-0.2,0.6-0.3,0.8h-1.3
				c0-0.2,0.1-0.5,0.2-0.8c0.1-0.3,0.2-0.7,0.2-1.1s0.1-0.9,0.1-1.3l0-0.5H263.5z"/>
			<path class="st16" d="M272.1,289.2v9.9H270v-7.9H270l-2.3,1.4v-1.9l2.5-1.6H272.1z"/>
			<path class="st16" d="M277.7,299.3c-0.7,0-1.3-0.1-1.8-0.4c-0.5-0.3-1-0.6-1.3-1s-0.5-0.9-0.5-1.5h2c0,0.4,0.2,0.7,0.5,0.9
				s0.7,0.4,1.1,0.4c0.3,0,0.6-0.1,0.9-0.2c0.3-0.1,0.5-0.4,0.6-0.6c0.1-0.3,0.2-0.6,0.2-0.9c0-0.3-0.1-0.7-0.2-0.9
				c-0.1-0.3-0.3-0.5-0.6-0.6s-0.6-0.2-0.9-0.2c-0.3,0-0.6,0.1-0.8,0.2s-0.5,0.3-0.6,0.5l-1.9-0.3l0.5-5.2h6.1v1.7h-4.3l-0.3,2.5
				h0.1c0.2-0.2,0.4-0.4,0.8-0.6s0.7-0.2,1.2-0.2c0.6,0,1.1,0.1,1.6,0.4c0.5,0.3,0.8,0.7,1.1,1.2c0.3,0.5,0.4,1,0.4,1.7
				c0,0.7-0.2,1.3-0.5,1.8c-0.3,0.5-0.7,0.9-1.3,1.2C279.1,299.1,278.5,299.3,277.7,299.3z"/>
			<path class="st16" d="M294.2,292.7h-2.1c0-0.3-0.1-0.5-0.2-0.7c-0.1-0.2-0.3-0.4-0.5-0.5c-0.2-0.2-0.4-0.3-0.6-0.3
				c-0.2-0.1-0.5-0.1-0.8-0.1c-0.5,0-1,0.1-1.3,0.4c-0.4,0.3-0.7,0.6-0.9,1.1c-0.2,0.5-0.3,1.1-0.3,1.8c0,0.7,0.1,1.3,0.3,1.8
				c0.2,0.5,0.5,0.8,0.9,1.1c0.4,0.2,0.8,0.4,1.3,0.4c0.3,0,0.5,0,0.8-0.1s0.5-0.2,0.6-0.3c0.2-0.1,0.3-0.3,0.5-0.5
				c0.1-0.2,0.2-0.4,0.3-0.7l2.1,0c-0.1,0.5-0.2,0.9-0.4,1.3c-0.2,0.4-0.5,0.8-0.9,1.1c-0.4,0.3-0.8,0.6-1.3,0.8
				c-0.5,0.2-1.1,0.3-1.7,0.3c-0.9,0-1.7-0.2-2.4-0.6c-0.7-0.4-1.2-1-1.6-1.7c-0.4-0.8-0.6-1.7-0.6-2.8c0-1.1,0.2-2,0.6-2.8
				c0.4-0.8,1-1.3,1.7-1.7c0.7-0.4,1.5-0.6,2.3-0.6c0.6,0,1.1,0.1,1.6,0.2c0.5,0.2,0.9,0.4,1.3,0.7c0.4,0.3,0.7,0.7,0.9,1.1
				C293.9,291.6,294.1,292.1,294.2,292.7z"/>
			<path class="st16" d="M295.3,299.1v-9.9h6.7v1.7h-4.6v2.4h4.2v1.7h-4.2v2.4h4.6v1.7H295.3z"/>
			<path class="st16" d="M303.3,299.1v-9.9h3.9c0.7,0,1.4,0.1,1.9,0.4c0.5,0.3,0.9,0.6,1.2,1.1c0.3,0.5,0.4,1.1,0.4,1.7
				c0,0.7-0.1,1.2-0.4,1.7c-0.3,0.5-0.7,0.8-1.2,1.1c-0.5,0.3-1.2,0.4-1.9,0.4h-2.6v-1.7h2.3c0.4,0,0.7-0.1,1-0.2
				c0.3-0.1,0.5-0.3,0.6-0.5c0.1-0.2,0.2-0.5,0.2-0.8c0-0.3-0.1-0.6-0.2-0.8c-0.1-0.2-0.3-0.4-0.6-0.5c-0.3-0.1-0.6-0.2-1-0.2h-1.4
				v8.2H303.3z M308.7,294.6l2.5,4.5h-2.3l-2.4-4.5H308.7z"/>
			<path class="st16" d="M311.5,291v-1.7h8.1v1.7h-3v8.2h-2.1V291H311.5z"/>
			<path class="st16" d="M322.8,289.2v9.9h-2.1v-9.9H322.8z"/>
			<path class="st16" d="M324.2,299.1v-9.9h6.6v1.7h-4.5v2.4h4v1.7h-4v4.1H324.2z"/>
			<path class="st16" d="M333.9,289.2v9.9h-2.1v-9.9H333.9z"/>
			<path class="st16" d="M335.3,299.1v-9.9h6.7v1.7h-4.6v2.4h4.2v1.7h-4.2v2.4h4.6v1.7H335.3z"/>
			<path class="st16" d="M346.8,299.1h-3.5v-9.9h3.5c1,0,1.9,0.2,2.6,0.6c0.7,0.4,1.3,1,1.7,1.7c0.4,0.7,0.6,1.6,0.6,2.6
				c0,1-0.2,1.9-0.6,2.7c-0.4,0.7-0.9,1.3-1.7,1.7S347.8,299.1,346.8,299.1z M345.4,297.3h1.3c0.6,0,1.1-0.1,1.6-0.3s0.7-0.6,1-1
				c0.2-0.5,0.3-1.1,0.3-1.8c0-0.7-0.1-1.3-0.3-1.8c-0.2-0.5-0.5-0.8-1-1c-0.4-0.2-0.9-0.3-1.6-0.3h-1.3V297.3z"/>
		</g>
	</g>
</g>
</svg>
